HIERARCHY
ROOT Hips
{
	OFFSET -14.64140 90.27770 -84.91600
	CHANNELS 6 Xposition Yposition Zposition Zrotation Xrotation Yrotation
	JOINT Spine
	{
		OFFSET 0.00000 13.20850 -1.60436
		CHANNELS 3 Zrotation Xrotation Yrotation
		JOINT Spine1
		{
			OFFSET 0.00000 8.61716 0.00000
			CHANNELS 3 Zrotation Xrotation Yrotation
			JOINT Spine2
			{
				OFFSET 0.00000 8.61717 0.00000
				CHANNELS 3 Zrotation Xrotation Yrotation
				JOINT Spine3
				{
					OFFSET 0.00000 8.61717 0.00000
					CHANNELS 3 Zrotation Xrotation Yrotation
					JOINT Neck
					{
						OFFSET 0.00000 11.07920 1.10792
						CHANNELS 3 Zrotation Xrotation Yrotation
						JOINT Neck1
						{
							OFFSET 0.00000 7.08032 0.00000
							CHANNELS 3 Zrotation Xrotation Yrotation
							JOINT Head
							{
								OFFSET 0.00000 7.08031 0.00000
								CHANNELS 3 Zrotation Xrotation Yrotation
								End site
								{
									OFFSET 0.00000 0.00000 0.00000
								}
							}
						}
					}
					JOINT RightShoulder
					{
						OFFSET -0.01000 7.91373 5.19711
						CHANNELS 3 Zrotation Xrotation Yrotation
						JOINT RightArm
						{
							OFFSET -18.41580 0.00000 0.00000
							CHANNELS 3 Zrotation Xrotation Yrotation
							JOINT RightForeArm
							{
								OFFSET -29.11090 0.00000 0.00000
								CHANNELS 3 Zrotation Xrotation Yrotation
								JOINT RightHand
								{
									OFFSET -24.65040 0.00000 0.00000
									CHANNELS 3 Zrotation Xrotation Yrotation
									JOINT RightHandThumb1
									{
										OFFSET -5.35114 -0.85590 3.97906
										CHANNELS 3 Zrotation Xrotation Yrotation
										JOINT RightHandThumb2
										{
											OFFSET -4.52789 0.00000 0.00000
											CHANNELS 3 Zrotation Xrotation Yrotation
											JOINT RightHandThumb3
											{
												OFFSET -2.46976 0.00000 0.00000
												CHANNELS 3 Zrotation Xrotation Yrotation
												End site
												{
													OFFSET 0.00000 0.00000 0.00000
												}
											}
										}
									}
									JOINT RightHandIndex1
									{
										OFFSET -14.26970 0.00000 2.88139
										CHANNELS 3 Zrotation Xrotation Yrotation
										JOINT RightHandIndex2
										{
											OFFSET -5.48836 0.00000 0.00000
											CHANNELS 3 Zrotation Xrotation Yrotation
											JOINT RightHandIndex3
											{
												OFFSET -3.01859 0.00000 0.00000
												CHANNELS 3 Zrotation Xrotation Yrotation
												End site
												{
													OFFSET 0.00000 0.00000 0.00000
												}
											}
										}
									}
									JOINT RightHandMiddle1
									{
										OFFSET -14.26970 0.00000 -0.09147
										CHANNELS 3 Zrotation Xrotation Yrotation
										JOINT RightHandMiddle2
										{
											OFFSET -6.17441 0.00000 0.00000
											CHANNELS 3 Zrotation Xrotation Yrotation
											JOINT RightHandMiddle3
											{
												OFFSET -3.56743 0.00000 0.00000
												CHANNELS 3 Zrotation Xrotation Yrotation
												End site
												{
													OFFSET 0.00000 0.00000 0.00000
												}
											}
										}
									}
									JOINT RightHandRing1
									{
										OFFSET -12.69180 0.00000 -3.06433
										CHANNELS 3 Zrotation Xrotation Yrotation
										JOINT RightHandRing2
										{
											OFFSET -5.62556 0.00000 0.00000
											CHANNELS 3 Zrotation Xrotation Yrotation
											JOINT RightHandRing3
											{
												OFFSET -3.56744 0.00000 0.00000
												CHANNELS 3 Zrotation Xrotation Yrotation
												End site
												{
													OFFSET 0.00000 0.00000 0.00000
												}
											}
										}
									}
									JOINT RightHandPinky1
									{
										OFFSET -11.11390 0.00000 -6.03719
										CHANNELS 3 Zrotation Xrotation Yrotation
										JOINT RightHandPinky2
										{
											OFFSET -4.52789 0.00000 0.00000
											CHANNELS 3 Zrotation Xrotation Yrotation
											JOINT RightHandPinky3
											{
												OFFSET -2.46976 0.00000 0.00000
												CHANNELS 3 Zrotation Xrotation Yrotation
												End site
												{
													OFFSET 0.00000 0.00000 0.00000
												}
											}
										}
									}
								}
							}
						}
					}
					JOINT LeftShoulder
					{
						OFFSET 0.01000 7.91373 5.19711
						CHANNELS 3 Zrotation Xrotation Yrotation
						JOINT LeftArm
						{
							OFFSET 18.41580 0.00000 0.00000
							CHANNELS 3 Zrotation Xrotation Yrotation
							JOINT LeftForeArm
							{
								OFFSET 29.11090 0.00000 0.00000
								CHANNELS 3 Zrotation Xrotation Yrotation
								JOINT LeftHand
								{
									OFFSET 24.65040 0.00000 0.00000
									CHANNELS 3 Zrotation Xrotation Yrotation
									JOINT LeftHandThumb1
									{
										OFFSET 5.35114 -0.85590 3.97906
										CHANNELS 3 Zrotation Xrotation Yrotation
										JOINT LeftHandThumb2
										{
											OFFSET 4.52789 0.00000 0.00000
											CHANNELS 3 Zrotation Xrotation Yrotation
											JOINT LeftHandThumb3
											{
												OFFSET 2.46977 0.00000 0.00000
												CHANNELS 3 Zrotation Xrotation Yrotation
												End site
												{
													OFFSET 0.00000 0.00000 0.00000
												}
											}
										}
									}
									JOINT LeftHandIndex1
									{
										OFFSET 14.26970 0.00000 2.88139
										CHANNELS 3 Zrotation Xrotation Yrotation
										JOINT LeftHandIndex2
										{
											OFFSET 5.48836 0.00000 0.00000
											CHANNELS 3 Zrotation Xrotation Yrotation
											JOINT LeftHandIndex3
											{
												OFFSET 3.01859 0.00000 0.00000
												CHANNELS 3 Zrotation Xrotation Yrotation
												End site
												{
													OFFSET 0.00000 0.00000 0.00000
												}
											}
										}
									}
									JOINT LeftHandMiddle1
									{
										OFFSET 14.26970 0.00000 -0.09147
										CHANNELS 3 Zrotation Xrotation Yrotation
										JOINT LeftHandMiddle2
										{
											OFFSET 6.17440 0.00000 0.00000
											CHANNELS 3 Zrotation Xrotation Yrotation
											JOINT LeftHandMiddle3
											{
												OFFSET 3.56744 0.00000 0.00000
												CHANNELS 3 Zrotation Xrotation Yrotation
												End site
												{
													OFFSET 0.00000 0.00000 0.00000
												}
											}
										}
									}
									JOINT LeftHandRing1
									{
										OFFSET 12.69180 0.00000 -3.06433
										CHANNELS 3 Zrotation Xrotation Yrotation
										JOINT LeftHandRing2
										{
											OFFSET 5.62556 0.00000 0.00000
											CHANNELS 3 Zrotation Xrotation Yrotation
											JOINT LeftHandRing3
											{
												OFFSET 3.56744 0.00000 0.00000
												CHANNELS 3 Zrotation Xrotation Yrotation
												End site
												{
													OFFSET 0.00000 0.00000 0.00000
												}
											}
										}
									}
									JOINT LeftHandPinky1
									{
										OFFSET 11.11390 0.00000 -6.03719
										CHANNELS 3 Zrotation Xrotation Yrotation
										JOINT LeftHandPinky2
										{
											OFFSET 4.52789 0.00000 0.00000
											CHANNELS 3 Zrotation Xrotation Yrotation
											JOINT LeftHandPinky3
											{
												OFFSET 2.46976 0.00000 0.00000
												CHANNELS 3 Zrotation Xrotation Yrotation
												End site
												{
													OFFSET 0.00000 0.00000 0.00000
												}
											}
										}
									}
								}
							}
						}
					}
					JOINT pCube4
					{
						OFFSET 0.00000 10.91090 1.10792
						CHANNELS 3 Zrotation Xrotation Yrotation
						End site
						{
							OFFSET 0.00000 0.00000 0.00000
						}
					}
				}
			}
		}
	}
	JOINT RightUpLeg
	{
		OFFSET -9.98441 0.00000 0.00000
		CHANNELS 3 Zrotation Xrotation Yrotation
		JOINT RightLeg
		{
			OFFSET 0.00000 -42.11790 0.00000
			CHANNELS 3 Zrotation Xrotation Yrotation
			JOINT RightFoot
			{
				OFFSET 0.00000 -45.00020 -0.00001
				CHANNELS 3 Zrotation Xrotation Yrotation
				JOINT RightForeFoot
				{
					OFFSET 0.00000 -3.74820 0.00000
					CHANNELS 3 Zrotation Xrotation Yrotation
					JOINT RightToeBase
					{
						OFFSET 0.00000 0.06325 14.43120
						CHANNELS 3 Zrotation Xrotation Yrotation
						End site
						{
							OFFSET 0.00000 0.00000 0.00000
						}
					}
				}
			}
		}
	}
	JOINT LeftUpLeg
	{
		OFFSET 9.98441 0.00000 0.00000
		CHANNELS 3 Zrotation Xrotation Yrotation
		JOINT LeftLeg
		{
			OFFSET 0.00000 -42.11800 0.00000
			CHANNELS 3 Zrotation Xrotation Yrotation
			JOINT LeftFoot
			{
				OFFSET 0.00000 -45.00070 0.00000
				CHANNELS 3 Zrotation Xrotation Yrotation
				JOINT LeftForeFoot
				{
					OFFSET 0.00000 -3.74824 0.00000
					CHANNELS 3 Zrotation Xrotation Yrotation
					JOINT LeftToeBase
					{
						OFFSET 0.00000 0.06325 14.43110
						CHANNELS 3 Zrotation Xrotation Yrotation
						End site
						{
							OFFSET 0.00000 0.00000 0.00000
						}
					}
				}
			}
		}
	}
}
MOTION
Frames: 4
Frame Time: 0.050000
0.00339687255956737 0.0044160754223399054 -0.045365393665732515 -0.00242408436465053 -0.0013948506891533331 0.0005731274022573857 -1.8952326616585824 1.7708332970820575 -0.8414637017844612 -1.0491201901751361 3.935899250079605 0.35720638697777823 -1.1607588467419274 -1.4257815923986943 -1.2280404282787571 0.7209005614827471 0.580230921074375 -0.8668286178828791 0.12470045272535159 12.283477272888582 -1.5439506163088255 -0.15516385719258377 -1.1145922152765724 -5.302560825933518 0.49333390729885 -16.90683604840649 -0.4459861465041523 -4.138174212948394 1.3581369759810158 -14.952307519120374 71.02035391561589 27.329721809925836 3.6537406795018983 -0.8826953071698815 5.340809105959187 39.35377066986629 22.815277126575104 -0.14548851842028435 -5.52071243450624 4.49995859581244 -0.1407618524839873 -1.629337290794312 0.0008975906656632447 -0.024746360951970237 -56.24074812086337 -0.04768973294206047 -0.0010707946696637436 -56.22627555229094 -38.72927997598317 0.023103131356776576 -0.0035791623661757927 0.0396462276904174 -0.019294634878079135 0.0145234205659332 -0.03798368804946471 0.025890185995973886 -0.011835825456218484 -36.73198985619089 -0.008308448856898359 0.00025189853437231405 -0.023184424127658244 0.004516804547642684 0.010104238684969102 -0.02007890701703261 0.039303479862267 0.014033804126543866 -19.732779240720735 -0.00781824568688122 -0.04657434270317988 -0.004295135429126924 -0.04881523272968303 -0.023264783013807244 0.04261892436533513 0.0004097404977704031 0.019496765980587877 24.036816060501213 -0.003755167129444067 -0.029134531364746363 28.880878899421273 -0.015571294638066972 -0.030068927038146998 28.852887453200466 -0.037762468263314315 -0.04221267079997058 4.8651981499058055 1.2121389748491493 13.020427081454288 -68.09428023513911 30.175747042314363 -9.172831532139002 -0.2850746521164587 -2.4202425751076704 -55.29297417165024 -18.988890491887865 -7.730682300149755 7.816168409345839 -0.42746917758500946 0.08365354715453148 -8.104048824277903 0.0021108667632985796 0.020917195589614933 44.55730377258871 -0.02987650890960124 -0.0467549410484303 44.612254075057834 12.455106889568768 0.04806138728699305 -0.005223545597072534 -0.02047138240920971 -0.029615086270077758 -0.03593866246670051 -0.020999053066638244 0.02320395062648669 0.0028509447916149682 11.087182332725162 0.006936187060764923 0.04980416832720185 0.002845965362275917 -0.020084347455373526 0.032944179012770594 -0.043308957697271694 0.036336752487095725 0.006689284565338469 4.786516928066132 -0.007954215184937125 -0.0063097105809809765 -0.03320169996946806 0.011974582121747783 0.00584211743282713 -0.01631492715036052 0.01603235095745681 -0.023559344979216634 -5.638522456599075 -0.0344789761952518 -0.012916393408497078 -6.700475130804632 -0.04427040599355868 -0.026812352060738873 -6.681300329071141 0.032520088280903844 -0.007750659515316553 -0.039841721172781716 0.03464732964240444 0.028073448052678387 8.083275191389154 3.521088753592354 -19.253142686242246 0.0036279363039738994 10.408022222295726 0.027224473064566643 -5.641161263453334 -15.680617144342257 3.2325685186702655 0.02489907839070628 -0.022438471879811236 0.012754029466872447 -0.02624813979404892 4.7321888855750975 -0.02153709188522048 12.468044913014557 -8.214222707513478 6.894259085572782 0.028654636549327827 46.36419665090941 -0.023690059045520948 -4.296842663923936 -14.719110275093003 -3.7970249541443812 0.041577610314003685 -0.013972166115080198 -0.007523344948719475 0.0460547797612752 -10.746604189918116 0.0253506408922076 
-0.02061977323113349 -0.038217228421523426 0.012532540634496037 0.005782927285511109 -0.007966771571078975 -0.0015506854881209503 -1.8661008888770716 1.7345245961140248 -0.869779513119667 -1.0123218327484185 3.9346286983602505 0.411026516471976 -1.1666825972716817 -1.3785656590572848 -1.2389015338700895 0.8003716653642485 0.5781171444105628 -0.8803941816318548 0.1243891620425208 12.233362699485212 -1.5223321158974308 -0.10695503311661757 -1.0068030613596424 -5.001146825988969 0.5218473460127735 -16.752302934586126 -0.4434098018610194 -3.947649639795488 1.367816360261042 -15.08441739951208 70.76968611051203 26.79339855185382 2.9531756707937666 -0.8759974711426818 4.7996064077706135 39.42201227923199 22.496808755604636 -0.1787161519714332 -5.3740024181851105 4.572445531434275 -0.16626699615784296 -1.6138304077369625 0.029510229411421528 0.008944721586823537 -56.26967970096432 0.004524383475718636 0.011455708596375491 -56.227858235898196 -38.77100410346153 -0.016506219942483993 0.005250391767862033 0.014694999311272978 -0.00044838706745058116 -0.006293410150661226 -0.0012658437096683308 0.0051004705055419045 -0.013250637079229239 -36.651684153638314 0.03281448964139546 -0.04675752291789565 0.00994740961156494 0.007058618608738228 0.04380275484990482 0.006797442500017297 -0.001103258172647085 -0.01839773752391755 -19.80429184402303 0.028076721862760102 0.031262989069150746 -0.010719957649790758 -0.048002562280331416 0.012051119006418382 0.017768755882168422 -0.035110923392275416 -0.005565721954571245 24.077234128526364 0.003165165700723632 -0.0012050774061366258 28.911171422635935 0.0065238742749316155 0.042288835847084545 28.89440739614057 0.008223240104496196 -0.02074422692908909 4.686684318862066 1.225157021753888 13.053937209611028 -68.09243671975553 30.36317886377813 -8.498107142430674 2.507517895063135 -4.684793265474518 -53.88376462895511 -18.344910376277557 -6.447383585285701 6.9965976774910414 -0.49572121721599666 0.03620763534748405 -8.107306226366706 0.045155980472085556 0.029067561900101544 44.52443793930484 -0.03206945832832514 -0.016801639709969184 44.56019840293004 12.433103457083131 0.010890725331321164 -0.02000767204933676 -0.00942618928929061 -0.011750013283070545 -0.04059227692411416 -0.03369461404800482 0.02846027345297187 -0.0022805019498987763 11.08562639816947 -0.011123077652252174 -0.01217164062168495 -0.00338097228646602 0.025777698066986716 -0.001627830557837263 -0.00994983710068053 -0.02329851530823333 0.004305098417280538 4.723930663135939 0.0087938423188174 -0.03670016881522232 0.0024228519271374664 4.564713029681879e-05 0.020892160359709668 0.024572660920613353 -0.03096478223323154 0.018921248143954766 -5.582084696489103 -0.03551571405284806 0.030223568223957137 -6.768887226064753 0.010111890008347234 0.0349468053804207 -6.68516571639971 0.006012156303584228 -0.003231953075707361 0.005481530052356681 -0.0243827741535402 0.03773415540221507 8.011336389315007 3.4916804798948045 -19.22050703784085 -0.02826364967986413 10.420245460463775 0.044541811096707504 -5.653687286745226 -15.665853925301986 3.1707337122667667 0.016086078090804545 -0.03170591257258436 -0.005843897946659572 -0.03522225216740453 4.694234037142048 0.012279050095159375 12.434573664534154 -8.238051684368383 6.893548080830933 0.001202541053869357 46.36063380728086 -0.014579106576809414 -4.284494770221845 -14.732971217414834 -3.8450901283622914 0.02879976024836512 -0.0447161353054991 0.03706932460577063 -0.02875169397772141 -10.710927765215663 0.039972391975893556 
0.004128677317972346 0.018268033871372834 -0.03347727942084657 0.04108917274513277 0.044404856255167144 0.03372251900778087 -1.7781247642281302 1.680289683860247 -0.9122813651937256 -1.0590493316974843 3.907181596947361 0.37698302458925054 -1.1288544921273218 -1.3713700309647183 -1.182539435901253 0.7812856287305459 0.5811802999953888 -0.8562337964487763 0.2433515150067854 12.11269586722431 -1.4933829419052156 -0.04930341489985185 -1.0058309243454064 -5.112615466269524 0.5020912526059371 -16.65785584678457 -0.4277700991188238 -3.886449247090188 1.382954836090293 -15.117783547751278 70.83284923056418 26.461231998192485 2.2593445441265096 -0.855320974875213 4.477878193210306 39.36667266812742 22.30548155607406 -0.14065711283846005 -5.210194713294636 4.511797647694122 -0.12770176338981976 -1.6214908498881597 -0.047026910015460756 -0.014399005896729522 -56.26946857354791 -0.011822011627904363 -0.010597095151129346 -56.23955923589943 -38.806726677302585 -0.014658433973099353 0.03645918707144088 -0.01219921673298891 0.004459814496431421 0.0023913274028606016 -0.0019348623927261663 -0.011280077255267956 0.009240010604811364 -36.73297517875684 -0.001461503825102832 -0.03285832498410115 -0.04332294776644064 0.04685193835721753 -0.04027279000686318 0.01975052166940634 -0.030692928663753068 0.042029081612594464 -19.763474706818318 -0.04832427487776539 0.01452499899724122 -0.03407451270818358 -0.011156406504338074 0.03387423549867441 0.03284639804832035 0.018735053511885914 0.03732734750050485 24.02457338179531 -0.024422280751687755 -0.005945379385867422 28.868183362843265 0.0447573824256192 0.0018429619724627973 28.866161897170738 -0.030983101942337336 0.009795779494586857 4.495084640810335 1.1349942083166735 13.06476904090897 -68.59259268628475 30.322637149210557 -7.266574326605101 3.847977557258228 -5.671632624425363 -51.452430450640655 -17.896076782955564 -5.231273112344778 6.156866801983054 -0.4961668984356765 0.08910480346382672 -8.106306756735568 -0.002823777082707884 -0.017692462327241584 44.566243590699564 0.03580486187538837 -0.0057464271019067 44.53817803510109 12.427165749989467 0.018726372163865326 0.006671024993993273 0.027193452765745852 0.004348962704611362 -0.04040082693103603 -0.018038134851970204 0.003404937710973922 -0.01389351300002361 11.094068663971026 -0.006839030552182519 0.014015287031453815 -0.0044223726573564565 0.02334946406055107 0.010158579814945529 -0.006628907456496808 -0.001630121422499946 0.005191951063612493 4.7816215803102535 0.03915791817560932 -0.008585353980633809 0.017555216760415493 0.023686119871605626 -0.0355672108684089 -0.014611456488717214 0.02452812738848544 0.01594761688907177 -5.58704809187412 0.04847090431557053 0.0010245713645926952 -6.74950132450483 0.02502230704187435 0.02701713554277627 -6.694896927085748 -0.010166945069480179 0.04944741000327459 -0.04999671224577602 -0.013642529139002196 0.021075390901797775 8.058656138422148 3.494456169789762 -19.26399042297771 0.043802778059444436 10.371672545409764 0.0312519757627288 -5.6024639235440565 -15.699386954841643 3.194977575876366 0.006234341515697354 0.006344138396200552 -0.0410242533682097 -0.01694193320553188 4.66389582098945 0.03725533611988924 12.46237964484358 -8.24496919856219 6.847175345049825 0.045744446318489645 46.36652767804296 0.02738021865078058 -4.3125874188592785 -14.784042208176336 -3.8370373413862766 0.02890629909551869 -0.04224149823033503 -0.041115663765723544 0.01267630853510166 -10.733146412090692 0.028577985763422888 
0.039654317069742456 -0.01458175654030913 -0.015818677649907308 -0.018889667018985742 -0.038100560765191804 -0.04488154330054314 -1.8523305079455707 1.6233375380848958 -0.8838001175799266 -1.0184323317932382 3.9051297265922598 0.38820061064783157 -1.1526129968783945 -1.3738866437609627 -1.0975924682215996 0.7375136581399498 0.5975462112210213 -0.8008574583026589 0.281155942496813 11.947079479659415 -1.5296798381760894 -0.08917149764251463 -1.0165363086985422 -5.283658521983751 0.47925357725667245 -16.637887010126544 -0.4362683965285684 -3.817902353698112 1.3106874862239704 -15.171296877989226 71.19603436101264 26.443204727941414 1.9152609996753145 -1.0835333992867078 4.065310366785957 39.487751437198455 22.037224058264833 -0.09405871814003264 -4.922287547647072 4.5646953949181075 -0.08063008653490869 -1.6140940298331643 -0.0035001057763034576 0.03915392100013207 -56.2397892580893 -0.011204204271317143 -0.0005662216263957174 -56.23655626169333 -38.798864112873716 -0.03713221569238517 0.03208933045755946 -0.041906325831404787 -0.021709220068563788 -0.023039592462019427 0.007650110089060808 -0.042663578411538054 -0.011360904387438989 -36.723616822876195 0.02246733119633179 -0.03755212713490076 -0.025803142892042944 -0.011457132031237114 -0.02858693772115274 -0.02243720467102042 -0.0016506890389579127 0.01735577191341673 -19.806717634054348 0.02104061985131557 -0.0034376303532631445 0.0046515577827572485 -0.01758425424387161 -0.042887067102570266 -0.027956424550682108 0.024240122452868305 0.0028181224727165397 24.10305961002443 -0.023849635399519866 0.041446253911848654 28.817531653037445 0.0012624432004951075 -0.008454099535999281 28.86342569564495 -0.019293918888282423 -0.001215370274759043 4.083435909227734 1.093602915312344 13.155732414413423 -69.22724416391019 30.03014232118752 -5.796884596539132 3.9488701292456727 -5.527547429004215 -48.29112965464275 -17.529340712364547 -3.922298334483546 5.308322599309032 -0.44892474354381245 0.09350239901058496 -8.10431680524432 -0.019699554909813583 -0.03532325492005005 44.56693411633062 -0.022076117707720375 -0.04533749275567948 44.569068391042464 12.497407640837068 0.015917338084897602 0.005403842509524134 -0.008407090471289964 -0.01692989298369469 -0.019645692945385106 -0.03453699849314757 -0.0119744152351713 0.007510210164681803 11.125108088530668 -0.032682106161335524 -0.040136131794911885 -0.005779536623964125 0.0027705654135834357 -0.006957034083189176 0.026873161918050767 0.013065281435818638 -0.032721820871062374 4.779757263102727 -0.048108235141243204 -0.011949311998726675 0.021994171127134737 0.033518802141867386 0.02886805995142719 0.012299171751884243 0.02394141392199354 -0.032471163703187166 -5.636663506271221 -0.0006899562708599349 0.027088547918902486 -6.711634005875443 0.0367263746998765 0.004832377906523783 -6.7472456749854794 -0.028702603111271704 0.024666771240454716 0.03290930977343084 0.009169758369543365 -0.03673122156522643 8.070172576222236 3.486959294248182 -19.222413878928485 -0.025349234556649725 10.428774102954277 -0.024057682628967497 -5.647375019265583 -15.623770388563248 3.1484473685020933 -0.026614014617561434 -0.020097513977684982 -0.021890505947145717 -0.006325892640626704 4.706776158400293 -0.00813152145657377 12.483455302727194 -8.267426088340537 6.921814733363522 0.04185126520041668 46.3584845247587 0.009369299800671329 -4.282936967701445 -14.705872408342392 -3.8315418440515456 0.022442295897111997 0.04615959679868031 -0.004184723108888511 -0.04533814850973547 -10.76022954147436 0.04656453074611294 
